<svg xmlns="http://www.w3.org/2000/svg" viewBox="25.5 21.5 169 191">
  <defs>
    <linearGradient id="domeGrad" x1="0" y1="0" x2="0" y2="1">
      <stop offset="0%" stop-color="#ff6db5"/>
      <stop offset="100%" stop-color="#e03d8f"/>
    </linearGradient>
    <linearGradient id="tentGrad" x1="0" y1="0" x2="0" y2="1">
      <stop offset="0%" stop-color="#e03d8f"/>
      <stop offset="100%" stop-color="#ff4fa3"/>
    </linearGradient>
  </defs>
  <path d="M 72 118 C 72 150, 58 162, 62 186 C 65 202, 78 204, 80 190 C 82 176, 72 170, 76 148" fill="url(#tentGrad)" stroke="url(#tentGrad)" stroke-width="4" stroke-linecap="round"/>
  <path d="M 110 120 C 110 155, 98 170, 104 196 C 108 212, 122 212, 122 197 C 122 180, 112 172, 116 150" fill="url(#tentGrad)" stroke="url(#tentGrad)" stroke-width="4" stroke-linecap="round"/>
  <path d="M 148 118 C 148 150, 162 162, 156 186 C 152 202, 139 204, 138 190 C 137 176, 148 170, 144 148" fill="url(#tentGrad)" stroke="url(#tentGrad)" stroke-width="4" stroke-linecap="round"/>
  <path d="M 30 122 C 30 62, 66 26, 110 26 C 154 26, 190 62, 190 122 C 190 130, 184 134, 176 134 L 44 134 C 36 134, 30 130, 30 122 Z" fill="url(#domeGrad)"/>
  <ellipse cx="82" cy="58" rx="26" ry="14" fill="#ffffff" opacity="0.18" transform="rotate(-18 82 58)"/>
  <ellipse cx="82" cy="86" rx="13" ry="14" fill="#ffffff"/>
  <circle cx="84" cy="88" r="7" fill="#2a1030"/>
  <circle cx="81" cy="84" r="2.6" fill="#ffffff"/>
  <ellipse cx="138" cy="86" rx="13" ry="14" fill="#ffffff"/>
  <circle cx="136" cy="88" r="7" fill="#2a1030"/>
  <circle cx="133" cy="84" r="2.6" fill="#ffffff"/>
  <path d="M 70 66 Q 82 60, 94 66" stroke="#2a1030" stroke-width="4" stroke-linecap="round" fill="none"/>
  <path d="M 126 66 Q 138 60, 150 66" stroke="#2a1030" stroke-width="4" stroke-linecap="round" fill="none"/>
  <rect x="102" y="98" width="16" height="7" rx="3.5" fill="#c22e79"/>
  <path d="M 96 112 Q 110 124, 124 112" stroke="#2a1030" stroke-width="4.5" stroke-linecap="round" fill="none"/>
</svg>
